<svg width="198" height="48" viewBox="0 0 198 48" fill="none" xmlns="http://www.w3.org/2000/svg">
<rect width="198" height="48" rx="24" fill="#2E3EDF"/>
<path d="M24.414 30.5L29.022 17.9H31.614L36.222 30.5H33.774L32.766 27.584H27.852L26.826 30.5H24.414ZM28.482 25.784H32.136L30.3 20.546L28.482 25.784ZM41.7432 30.716C40.8312 30.716 40.0272 30.518 39.3312 30.122C38.6352 29.726 38.0832 29.174 37.6752 28.466C37.2792 27.758 37.0812 26.948 37.0812 26.036C37.0812 25.124 37.2792 24.314 37.6752 23.606C38.0832 22.898 38.6352 22.346 39.3312 21.95C40.0272 21.554 40.8312 21.356 41.7432 21.356C42.8832 21.356 43.8432 21.656 44.6232 22.256C45.4032 22.844 45.9012 23.66 46.1172 24.704H43.6872C43.5672 24.272 43.3272 23.936 42.9672 23.696C42.6192 23.444 42.2052 23.318 41.7252 23.318C41.0892 23.318 40.5492 23.558 40.1052 24.038C39.6612 24.518 39.4392 25.184 39.4392 26.036C39.4392 26.888 39.6612 27.554 40.1052 28.034C40.5492 28.514 41.0892 28.754 41.7252 28.754C42.2052 28.754 42.6192 28.634 42.9672 28.394C43.3272 28.154 43.5672 27.812 43.6872 27.368H46.1172C45.9012 28.376 45.4032 29.186 44.6232 29.798C43.8432 30.41 42.8832 30.716 41.7432 30.716ZM52.0171 30.5C51.0811 30.5 50.3311 30.272 49.7671 29.816C49.2031 29.36 48.9211 28.55 48.9211 27.386V23.498H47.3911V21.572H48.9211L49.1911 19.178H51.2251V21.572H53.6371V23.498H51.2251V27.404C51.2251 27.836 51.3151 28.136 51.4951 28.304C51.6871 28.46 52.0111 28.538 52.4671 28.538H53.5831V30.5H52.0171ZM56.8573 20.186C56.4373 20.186 56.0893 20.06 55.8133 19.808C55.5493 19.556 55.4173 19.238 55.4173 18.854C55.4173 18.47 55.5493 18.158 55.8133 17.918C56.0893 17.666 56.4373 17.54 56.8573 17.54C57.2773 17.54 57.6193 17.666 57.8833 17.918C58.1593 18.158 58.2973 18.47 58.2973 18.854C58.2973 19.238 58.1593 19.556 57.8833 19.808C57.6193 20.06 57.2773 20.186 56.8573 20.186ZM55.7053 30.5V21.572H58.0093V30.5H55.7053ZM62.8261 30.5L59.5501 21.572H61.9621L64.2301 28.322L66.4981 21.572H68.9101L65.6161 30.5H62.8261ZM72.8964 30.716C72.1284 30.716 71.4984 30.596 71.0064 30.356C70.5144 30.104 70.1484 29.774 69.9084 29.366C69.6684 28.958 69.5484 28.508 69.5484 28.016C69.5484 27.188 69.8724 26.516 70.5204 26C71.1684 25.484 72.1404 25.226 73.4364 25.226H75.7044V25.01C75.7044 24.398 75.5304 23.948 75.1824 23.66C74.8344 23.372 74.4024 23.228 73.8864 23.228C73.4184 23.228 73.0104 23.342 72.6624 23.57C72.3144 23.786 72.0984 24.11 72.0144 24.542H69.7644C69.8244 23.894 70.0404 23.33 70.4124 22.85C70.7964 22.37 71.2884 22.004 71.8884 21.752C72.4884 21.488 73.1604 21.356 73.9044 21.356C75.1764 21.356 76.1784 21.674 76.9104 22.31C77.6424 22.946 78.0084 23.846 78.0084 25.01V30.5H76.0464L75.8304 29.06C75.5664 29.54 75.1944 29.936 74.7144 30.248C74.2464 30.56 73.6404 30.716 72.8964 30.716ZM73.4184 28.916C74.0784 28.916 74.5884 28.7 74.9484 28.268C75.3204 27.836 75.5544 27.302 75.6504 26.666H73.6884C73.0764 26.666 72.6384 26.78 72.3744 27.008C72.1104 27.224 71.9784 27.494 71.9784 27.818C71.9784 28.166 72.1104 28.436 72.3744 28.628C72.6384 28.82 72.9864 28.916 73.4184 28.916ZM84.0621 30.5C83.1261 30.5 82.3761 30.272 81.8121 29.816C81.2481 29.36 80.9661 28.55 80.9661 27.386V23.498H79.4361V21.572H80.9661L81.2361 19.178H83.2701V21.572H85.6821V23.498H83.2701V27.404C83.2701 27.836 83.3601 28.136 83.5401 28.304C83.7321 28.46 84.0561 28.538 84.5121 28.538H85.6281V30.5H84.0621ZM91.7697 30.716C90.8697 30.716 90.0717 30.524 89.3757 30.14C88.6797 29.756 88.1337 29.216 87.7377 28.52C87.3417 27.824 87.1437 27.02 87.1437 26.108C87.1437 25.184 87.3357 24.362 87.7197 23.642C88.1157 22.922 88.6557 22.364 89.3397 21.968C90.0357 21.56 90.8517 21.356 91.7877 21.356C92.6637 21.356 93.4377 21.548 94.1097 21.932C94.7817 22.316 95.3037 22.844 95.6757 23.516C96.0597 24.176 96.2517 24.914 96.2517 25.73C96.2517 25.862 96.2457 26 96.2337 26.144C96.2337 26.288 96.2277 26.438 96.2157 26.594H89.4297C89.4777 27.29 89.7177 27.836 90.1497 28.232C90.5937 28.628 91.1277 28.826 91.7517 28.826C92.2197 28.826 92.6097 28.724 92.9217 28.52C93.2457 28.304 93.4857 28.028 93.6417 27.692H95.9817C95.8137 28.256 95.5317 28.772 95.1357 29.24C94.7517 29.696 94.2717 30.056 93.6957 30.32C93.1317 30.584 92.4897 30.716 91.7697 30.716ZM91.7877 23.228C91.2237 23.228 90.7257 23.39 90.2937 23.714C89.8617 24.026 89.5857 24.506 89.4657 25.154H93.9117C93.8757 24.566 93.6597 24.098 93.2637 23.75C92.8677 23.402 92.3757 23.228 91.7877 23.228ZM105.557 30.716C104.789 30.716 104.159 30.596 103.667 30.356C103.175 30.104 102.809 29.774 102.569 29.366C102.329 28.958 102.209 28.508 102.209 28.016C102.209 27.188 102.533 26.516 103.181 26C103.829 25.484 104.801 25.226 106.097 25.226H108.365V25.01C108.365 24.398 108.191 23.948 107.843 23.66C107.495 23.372 107.063 23.228 106.547 23.228C106.079 23.228 105.671 23.342 105.323 23.57C104.975 23.786 104.759 24.11 104.675 24.542H102.425C102.485 23.894 102.701 23.33 103.073 22.85C103.457 22.37 103.949 22.004 104.549 21.752C105.149 21.488 105.821 21.356 106.565 21.356C107.837 21.356 108.839 21.674 109.571 22.31C110.303 22.946 110.669 23.846 110.669 25.01V30.5H108.707L108.491 29.06C108.227 29.54 107.855 29.936 107.375 30.248C106.907 30.56 106.301 30.716 105.557 30.716ZM106.079 28.916C106.739 28.916 107.249 28.7 107.609 28.268C107.981 27.836 108.215 27.302 108.311 26.666H106.349C105.737 26.666 105.299 26.78 105.035 27.008C104.771 27.224 104.639 27.494 104.639 27.818C104.639 28.166 104.771 28.436 105.035 28.628C105.299 28.82 105.647 28.916 106.079 28.916ZM117.241 30.716C116.329 30.716 115.525 30.518 114.829 30.122C114.133 29.726 113.581 29.174 113.173 28.466C112.777 27.758 112.579 26.948 112.579 26.036C112.579 25.124 112.777 24.314 113.173 23.606C113.581 22.898 114.133 22.346 114.829 21.95C115.525 21.554 116.329 21.356 117.241 21.356C118.381 21.356 119.341 21.656 120.121 22.256C120.901 22.844 121.399 23.66 121.615 24.704H119.185C119.065 24.272 118.825 23.936 118.465 23.696C118.117 23.444 117.703 23.318 117.223 23.318C116.587 23.318 116.047 23.558 115.603 24.038C115.159 24.518 114.937 25.184 114.937 26.036C114.937 26.888 115.159 27.554 115.603 28.034C116.047 28.514 116.587 28.754 117.223 28.754C117.703 28.754 118.117 28.634 118.465 28.394C118.825 28.154 119.065 27.812 119.185 27.368H121.615C121.399 28.376 120.901 29.186 120.121 29.798C119.341 30.41 118.381 30.716 117.241 30.716ZM128.034 30.716C127.122 30.716 126.318 30.518 125.622 30.122C124.926 29.726 124.374 29.174 123.966 28.466C123.57 27.758 123.372 26.948 123.372 26.036C123.372 25.124 123.57 24.314 123.966 23.606C124.374 22.898 124.926 22.346 125.622 21.95C126.318 21.554 127.122 21.356 128.034 21.356C129.174 21.356 130.134 21.656 130.914 22.256C131.694 22.844 132.192 23.66 132.408 24.704H129.978C129.858 24.272 129.618 23.936 129.258 23.696C128.91 23.444 128.496 23.318 128.016 23.318C127.38 23.318 126.84 23.558 126.396 24.038C125.952 24.518 125.73 25.184 125.73 26.036C125.73 26.888 125.952 27.554 126.396 28.034C126.84 28.514 127.38 28.754 128.016 28.754C128.496 28.754 128.91 28.634 129.258 28.394C129.618 28.154 129.858 27.812 129.978 27.368H132.408C132.192 28.376 131.694 29.186 130.914 29.798C130.134 30.41 129.174 30.716 128.034 30.716ZM138.737 30.716C137.873 30.716 137.093 30.518 136.397 30.122C135.713 29.726 135.167 29.18 134.759 28.484C134.363 27.776 134.165 26.96 134.165 26.036C134.165 25.112 134.369 24.302 134.777 23.606C135.185 22.898 135.731 22.346 136.415 21.95C137.111 21.554 137.891 21.356 138.755 21.356C139.607 21.356 140.375 21.554 141.059 21.95C141.755 22.346 142.301 22.898 142.697 23.606C143.105 24.302 143.309 25.112 143.309 26.036C143.309 26.96 143.105 27.776 142.697 28.484C142.301 29.18 141.755 29.726 141.059 30.122C140.363 30.518 139.589 30.716 138.737 30.716ZM138.737 28.718C139.337 28.718 139.859 28.496 140.303 28.052C140.747 27.596 140.969 26.924 140.969 26.036C140.969 25.148 140.747 24.482 140.303 24.038C139.859 23.582 139.343 23.354 138.755 23.354C138.143 23.354 137.615 23.582 137.171 24.038C136.739 24.482 136.523 25.148 136.523 26.036C136.523 26.924 136.739 27.596 137.171 28.052C137.615 28.496 138.137 28.718 138.737 28.718ZM148.717 30.716C147.601 30.716 146.737 30.368 146.125 29.672C145.525 28.976 145.225 27.956 145.225 26.612V21.572H147.511V26.396C147.511 27.164 147.667 27.752 147.979 28.16C148.291 28.568 148.783 28.772 149.455 28.772C150.091 28.772 150.613 28.544 151.021 28.088C151.441 27.632 151.651 26.996 151.651 26.18V21.572H153.955V30.5H151.921L151.741 28.988C151.465 29.516 151.063 29.936 150.535 30.248C150.019 30.56 149.413 30.716 148.717 30.716ZM156.32 30.5V21.572H158.354L158.534 23.084C158.81 22.556 159.206 22.136 159.722 21.824C160.25 21.512 160.868 21.356 161.576 21.356C162.68 21.356 163.538 21.704 164.15 22.4C164.762 23.096 165.068 24.116 165.068 25.46V30.5H162.764V25.676C162.764 24.908 162.608 24.32 162.296 23.912C161.984 23.504 161.498 23.3 160.838 23.3C160.19 23.3 159.656 23.528 159.236 23.984C158.828 24.44 158.624 25.076 158.624 25.892V30.5H156.32ZM171.25 30.5C170.314 30.5 169.564 30.272 169 29.816C168.436 29.36 168.154 28.55 168.154 27.386V23.498H166.624V21.572H168.154L168.424 19.178H170.458V21.572H172.87V23.498H170.458V27.404C170.458 27.836 170.548 28.136 170.728 28.304C170.92 28.46 171.244 28.538 171.7 28.538H172.816V30.5H171.25Z" fill="white"/>
</svg>
